<mxfile host="app.diagrams.net" modified="2020-10-16T15:53:56.682Z" agent="5.0 (Windows NT 10.0; Win64; x64) AppleWebKit/537.36 (KHTML, like Gecko) Chrome/86.0.4240.75 Safari/537.36" etag="PBuycbxWR86EuaHVcFly" version="13.8.0" type="github">
  <diagram id="4DXB5PGslYr0R_SYelSN" name="Page-1">
    <mxGraphModel dx="2071" dy="682" grid="1" gridSize="10" guides="1" tooltips="1" connect="1" arrows="1" fold="1" page="1" pageScale="1" pageWidth="850" pageHeight="1100" math="0" shadow="0">
      <root>
        <mxCell id="0" />
        <mxCell id="1" parent="0" />
        <mxCell id="3s2Bezt8pYJbpKlEnDmr-1" value="" style="whiteSpace=wrap;html=1;aspect=fixed;" vertex="1" parent="1">
          <mxGeometry x="174" y="110" width="80" height="80" as="geometry" />
        </mxCell>
        <mxCell id="3s2Bezt8pYJbpKlEnDmr-4" value="" style="whiteSpace=wrap;html=1;aspect=fixed;" vertex="1" parent="1">
          <mxGeometry x="184" y="120" width="80" height="80" as="geometry" />
        </mxCell>
        <mxCell id="3s2Bezt8pYJbpKlEnDmr-5" value="" style="whiteSpace=wrap;html=1;aspect=fixed;" vertex="1" parent="1">
          <mxGeometry x="194" y="130" width="80" height="80" as="geometry" />
        </mxCell>
        <mxCell id="3s2Bezt8pYJbpKlEnDmr-6" value="" style="whiteSpace=wrap;html=1;aspect=fixed;" vertex="1" parent="1">
          <mxGeometry x="204" y="140" width="80" height="80" as="geometry" />
        </mxCell>
        <mxCell id="3s2Bezt8pYJbpKlEnDmr-7" value="" style="whiteSpace=wrap;html=1;aspect=fixed;" vertex="1" parent="1">
          <mxGeometry x="214" y="150" width="80" height="80" as="geometry" />
        </mxCell>
        <mxCell id="3s2Bezt8pYJbpKlEnDmr-8" value="" style="whiteSpace=wrap;html=1;aspect=fixed;" vertex="1" parent="1">
          <mxGeometry x="224" y="160" width="80" height="80" as="geometry" />
        </mxCell>
        <mxCell id="3s2Bezt8pYJbpKlEnDmr-9" value="" style="whiteSpace=wrap;html=1;aspect=fixed;" vertex="1" parent="1">
          <mxGeometry x="354" y="120" width="50" height="50" as="geometry" />
        </mxCell>
        <mxCell id="3s2Bezt8pYJbpKlEnDmr-10" value="" style="whiteSpace=wrap;html=1;aspect=fixed;" vertex="1" parent="1">
          <mxGeometry x="364" y="130" width="50" height="50" as="geometry" />
        </mxCell>
        <mxCell id="3s2Bezt8pYJbpKlEnDmr-11" value="" style="whiteSpace=wrap;html=1;aspect=fixed;" vertex="1" parent="1">
          <mxGeometry x="374" y="140" width="50" height="50" as="geometry" />
        </mxCell>
        <mxCell id="3s2Bezt8pYJbpKlEnDmr-12" value="" style="whiteSpace=wrap;html=1;aspect=fixed;" vertex="1" parent="1">
          <mxGeometry x="384" y="150" width="50" height="50" as="geometry" />
        </mxCell>
        <mxCell id="3s2Bezt8pYJbpKlEnDmr-13" value="" style="whiteSpace=wrap;html=1;aspect=fixed;" vertex="1" parent="1">
          <mxGeometry x="394" y="160" width="50" height="50" as="geometry" />
        </mxCell>
        <mxCell id="3s2Bezt8pYJbpKlEnDmr-14" value="" style="whiteSpace=wrap;html=1;aspect=fixed;" vertex="1" parent="1">
          <mxGeometry x="404" y="170" width="50" height="50" as="geometry" />
        </mxCell>
        <mxCell id="3s2Bezt8pYJbpKlEnDmr-15" value="" style="whiteSpace=wrap;html=1;aspect=fixed;" vertex="1" parent="1">
          <mxGeometry x="494" y="120" width="30" height="30" as="geometry" />
        </mxCell>
        <mxCell id="3s2Bezt8pYJbpKlEnDmr-16" value="" style="whiteSpace=wrap;html=1;aspect=fixed;" vertex="1" parent="1">
          <mxGeometry x="504" y="130" width="30" height="30" as="geometry" />
        </mxCell>
        <mxCell id="3s2Bezt8pYJbpKlEnDmr-17" value="" style="whiteSpace=wrap;html=1;aspect=fixed;" vertex="1" parent="1">
          <mxGeometry x="514" y="140" width="30" height="30" as="geometry" />
        </mxCell>
        <mxCell id="3s2Bezt8pYJbpKlEnDmr-18" value="" style="whiteSpace=wrap;html=1;aspect=fixed;" vertex="1" parent="1">
          <mxGeometry x="524" y="150" width="30" height="30" as="geometry" />
        </mxCell>
        <mxCell id="3s2Bezt8pYJbpKlEnDmr-19" value="" style="whiteSpace=wrap;html=1;aspect=fixed;" vertex="1" parent="1">
          <mxGeometry x="534" y="160" width="30" height="30" as="geometry" />
        </mxCell>
        <mxCell id="3s2Bezt8pYJbpKlEnDmr-20" value="" style="whiteSpace=wrap;html=1;aspect=fixed;" vertex="1" parent="1">
          <mxGeometry x="544" y="170" width="30" height="30" as="geometry" />
        </mxCell>
        <mxCell id="3s2Bezt8pYJbpKlEnDmr-21" value="" style="whiteSpace=wrap;html=1;aspect=fixed;" vertex="1" parent="1">
          <mxGeometry x="554" y="180" width="30" height="30" as="geometry" />
        </mxCell>
        <mxCell id="3s2Bezt8pYJbpKlEnDmr-22" value="" style="whiteSpace=wrap;html=1;aspect=fixed;" vertex="1" parent="1">
          <mxGeometry x="564" y="190" width="30" height="30" as="geometry" />
        </mxCell>
        <mxCell id="3s2Bezt8pYJbpKlEnDmr-23" value="" style="whiteSpace=wrap;html=1;aspect=fixed;" vertex="1" parent="1">
          <mxGeometry x="574" y="200" width="30" height="30" as="geometry" />
        </mxCell>
        <mxCell id="3s2Bezt8pYJbpKlEnDmr-24" value="" style="whiteSpace=wrap;html=1;aspect=fixed;" vertex="1" parent="1">
          <mxGeometry x="584" y="210" width="30" height="30" as="geometry" />
        </mxCell>
        <mxCell id="3s2Bezt8pYJbpKlEnDmr-25" value="" style="whiteSpace=wrap;html=1;aspect=fixed;" vertex="1" parent="1">
          <mxGeometry x="594" y="220" width="30" height="30" as="geometry" />
        </mxCell>
        <mxCell id="3s2Bezt8pYJbpKlEnDmr-26" value="" style="whiteSpace=wrap;html=1;aspect=fixed;" vertex="1" parent="1">
          <mxGeometry x="604" y="230" width="30" height="30" as="geometry" />
        </mxCell>
        <mxCell id="3s2Bezt8pYJbpKlEnDmr-27" value="" style="whiteSpace=wrap;html=1;aspect=fixed;" vertex="1" parent="1">
          <mxGeometry x="614" y="240" width="30" height="30" as="geometry" />
        </mxCell>
        <mxCell id="3s2Bezt8pYJbpKlEnDmr-28" value="" style="whiteSpace=wrap;html=1;aspect=fixed;" vertex="1" parent="1">
          <mxGeometry x="624" y="250" width="30" height="30" as="geometry" />
        </mxCell>
        <mxCell id="3s2Bezt8pYJbpKlEnDmr-29" value="" style="whiteSpace=wrap;html=1;aspect=fixed;" vertex="1" parent="1">
          <mxGeometry x="634" y="260" width="30" height="30" as="geometry" />
        </mxCell>
        <mxCell id="3s2Bezt8pYJbpKlEnDmr-30" value="" style="whiteSpace=wrap;html=1;aspect=fixed;" vertex="1" parent="1">
          <mxGeometry x="644" y="270" width="30" height="30" as="geometry" />
        </mxCell>
        <mxCell id="3s2Bezt8pYJbpKlEnDmr-31" value="" style="whiteSpace=wrap;html=1;aspect=fixed;" vertex="1" parent="1">
          <mxGeometry x="614" y="120" width="20" height="20" as="geometry" />
        </mxCell>
        <mxCell id="3s2Bezt8pYJbpKlEnDmr-48" value="" style="whiteSpace=wrap;html=1;aspect=fixed;" vertex="1" parent="1">
          <mxGeometry x="624" y="130" width="20" height="20" as="geometry" />
        </mxCell>
        <mxCell id="3s2Bezt8pYJbpKlEnDmr-49" value="" style="whiteSpace=wrap;html=1;aspect=fixed;" vertex="1" parent="1">
          <mxGeometry x="634" y="140" width="20" height="20" as="geometry" />
        </mxCell>
        <mxCell id="3s2Bezt8pYJbpKlEnDmr-50" value="" style="whiteSpace=wrap;html=1;aspect=fixed;" vertex="1" parent="1">
          <mxGeometry x="644" y="150" width="20" height="20" as="geometry" />
        </mxCell>
        <mxCell id="3s2Bezt8pYJbpKlEnDmr-51" value="" style="whiteSpace=wrap;html=1;aspect=fixed;" vertex="1" parent="1">
          <mxGeometry x="654" y="160" width="20" height="20" as="geometry" />
        </mxCell>
        <mxCell id="3s2Bezt8pYJbpKlEnDmr-52" value="" style="whiteSpace=wrap;html=1;aspect=fixed;" vertex="1" parent="1">
          <mxGeometry x="664" y="170" width="20" height="20" as="geometry" />
        </mxCell>
        <mxCell id="3s2Bezt8pYJbpKlEnDmr-53" value="" style="whiteSpace=wrap;html=1;aspect=fixed;" vertex="1" parent="1">
          <mxGeometry x="674" y="180" width="20" height="20" as="geometry" />
        </mxCell>
        <mxCell id="3s2Bezt8pYJbpKlEnDmr-54" value="" style="whiteSpace=wrap;html=1;aspect=fixed;" vertex="1" parent="1">
          <mxGeometry x="684" y="190" width="20" height="20" as="geometry" />
        </mxCell>
        <mxCell id="3s2Bezt8pYJbpKlEnDmr-55" value="" style="whiteSpace=wrap;html=1;aspect=fixed;" vertex="1" parent="1">
          <mxGeometry x="694" y="200" width="20" height="20" as="geometry" />
        </mxCell>
        <mxCell id="3s2Bezt8pYJbpKlEnDmr-56" value="" style="whiteSpace=wrap;html=1;aspect=fixed;" vertex="1" parent="1">
          <mxGeometry x="704" y="210" width="20" height="20" as="geometry" />
        </mxCell>
        <mxCell id="3s2Bezt8pYJbpKlEnDmr-57" value="" style="whiteSpace=wrap;html=1;aspect=fixed;" vertex="1" parent="1">
          <mxGeometry x="714" y="220" width="20" height="20" as="geometry" />
        </mxCell>
        <mxCell id="3s2Bezt8pYJbpKlEnDmr-58" value="" style="whiteSpace=wrap;html=1;aspect=fixed;" vertex="1" parent="1">
          <mxGeometry x="724" y="230" width="20" height="20" as="geometry" />
        </mxCell>
        <mxCell id="3s2Bezt8pYJbpKlEnDmr-59" value="" style="whiteSpace=wrap;html=1;aspect=fixed;" vertex="1" parent="1">
          <mxGeometry x="734" y="240" width="20" height="20" as="geometry" />
        </mxCell>
        <mxCell id="3s2Bezt8pYJbpKlEnDmr-60" value="" style="whiteSpace=wrap;html=1;aspect=fixed;" vertex="1" parent="1">
          <mxGeometry x="744" y="250" width="20" height="20" as="geometry" />
        </mxCell>
        <mxCell id="3s2Bezt8pYJbpKlEnDmr-61" value="" style="whiteSpace=wrap;html=1;aspect=fixed;" vertex="1" parent="1">
          <mxGeometry x="754" y="260" width="20" height="20" as="geometry" />
        </mxCell>
        <mxCell id="3s2Bezt8pYJbpKlEnDmr-62" value="" style="whiteSpace=wrap;html=1;aspect=fixed;" vertex="1" parent="1">
          <mxGeometry x="764" y="270" width="20" height="20" as="geometry" />
        </mxCell>
        <mxCell id="3s2Bezt8pYJbpKlEnDmr-64" value="" style="shape=parallelogram;perimeter=parallelogramPerimeter;whiteSpace=wrap;html=1;fixedSize=1;rotation=0;size=-10;flipH=1;" vertex="1" parent="1">
          <mxGeometry x="824" y="120" width="26" height="26" as="geometry" />
        </mxCell>
        <mxCell id="3s2Bezt8pYJbpKlEnDmr-67" value="" style="rounded=0;whiteSpace=wrap;html=1;" vertex="1" parent="1">
          <mxGeometry x="234" y="170" width="30" height="30" as="geometry" />
        </mxCell>
        <mxCell id="3s2Bezt8pYJbpKlEnDmr-68" value="" style="rounded=0;whiteSpace=wrap;html=1;" vertex="1" parent="1">
          <mxGeometry x="409" y="175" width="20" height="20" as="geometry" />
        </mxCell>
        <mxCell id="3s2Bezt8pYJbpKlEnDmr-69" value="" style="rounded=0;whiteSpace=wrap;html=1;" vertex="1" parent="1">
          <mxGeometry x="434" y="195" width="20" height="20" as="geometry" />
        </mxCell>
        <mxCell id="3s2Bezt8pYJbpKlEnDmr-70" value="" style="rounded=0;whiteSpace=wrap;html=1;" vertex="1" parent="1">
          <mxGeometry x="659" y="275" width="10" height="10" as="geometry" />
        </mxCell>
        <mxCell id="3s2Bezt8pYJbpKlEnDmr-71" value="" style="rounded=0;whiteSpace=wrap;html=1;" vertex="1" parent="1">
          <mxGeometry x="774" y="275" width="5" height="5" as="geometry" />
        </mxCell>
        <mxCell id="3s2Bezt8pYJbpKlEnDmr-72" value="" style="endArrow=none;html=1;entryX=0;entryY=0;entryDx=0;entryDy=0;" edge="1" parent="1" target="3s2Bezt8pYJbpKlEnDmr-68">
          <mxGeometry width="50" height="50" relative="1" as="geometry">
            <mxPoint x="264" y="170" as="sourcePoint" />
            <mxPoint x="314" y="120" as="targetPoint" />
          </mxGeometry>
        </mxCell>
        <mxCell id="3s2Bezt8pYJbpKlEnDmr-73" value="" style="endArrow=none;html=1;entryX=0;entryY=1;entryDx=0;entryDy=0;exitX=1;exitY=1;exitDx=0;exitDy=0;" edge="1" parent="1" source="3s2Bezt8pYJbpKlEnDmr-67" target="3s2Bezt8pYJbpKlEnDmr-68">
          <mxGeometry width="50" height="50" relative="1" as="geometry">
            <mxPoint x="274" y="180" as="sourcePoint" />
            <mxPoint x="419" y="185" as="targetPoint" />
          </mxGeometry>
        </mxCell>
        <mxCell id="3s2Bezt8pYJbpKlEnDmr-74" value="" style="endArrow=none;html=1;entryX=0;entryY=0.5;entryDx=0;entryDy=0;exitX=1;exitY=0;exitDx=0;exitDy=0;" edge="1" parent="1" source="3s2Bezt8pYJbpKlEnDmr-69">
          <mxGeometry width="50" height="50" relative="1" as="geometry">
            <mxPoint x="459" y="200" as="sourcePoint" />
            <mxPoint x="652.9999999999857" y="290.99999999999994" as="targetPoint" />
          </mxGeometry>
        </mxCell>
        <mxCell id="3s2Bezt8pYJbpKlEnDmr-75" value="" style="endArrow=none;html=1;exitX=1;exitY=1;exitDx=0;exitDy=0;entryX=0;entryY=1;entryDx=0;entryDy=0;" edge="1" parent="1" source="3s2Bezt8pYJbpKlEnDmr-69">
          <mxGeometry width="50" height="50" relative="1" as="geometry">
            <mxPoint x="464" y="205" as="sourcePoint" />
            <mxPoint x="653.2928932187717" y="291.70710678122816" as="targetPoint" />
          </mxGeometry>
        </mxCell>
        <mxCell id="3s2Bezt8pYJbpKlEnDmr-78" value="" style="endArrow=none;html=1;exitX=1;exitY=0;exitDx=0;exitDy=0;entryX=0;entryY=0;entryDx=0;entryDy=0;" edge="1" parent="1" source="3s2Bezt8pYJbpKlEnDmr-70" target="3s2Bezt8pYJbpKlEnDmr-71">
          <mxGeometry width="50" height="50" relative="1" as="geometry">
            <mxPoint x="590" y="300" as="sourcePoint" />
            <mxPoint x="640" y="250" as="targetPoint" />
          </mxGeometry>
        </mxCell>
        <mxCell id="3s2Bezt8pYJbpKlEnDmr-79" value="" style="endArrow=none;html=1;exitX=1;exitY=1;exitDx=0;exitDy=0;entryX=0;entryY=1;entryDx=0;entryDy=0;" edge="1" parent="1" source="3s2Bezt8pYJbpKlEnDmr-70" target="3s2Bezt8pYJbpKlEnDmr-71">
          <mxGeometry width="50" height="50" relative="1" as="geometry">
            <mxPoint x="679" y="287.5" as="sourcePoint" />
            <mxPoint x="784" y="286.25" as="targetPoint" />
          </mxGeometry>
        </mxCell>
        <mxCell id="3s2Bezt8pYJbpKlEnDmr-80" value="" style="verticalLabelPosition=bottom;verticalAlign=top;html=1;shape=mxgraph.basic.patternFillRect;fillStyle=grid;step=5;fillStrokeWidth=0.2;fillStrokeColor=#dddddd;" vertex="1" parent="1">
          <mxGeometry x="30" y="120" width="100" height="100" as="geometry" />
        </mxCell>
        <mxCell id="3s2Bezt8pYJbpKlEnDmr-81" value="" style="shape=image;html=1;verticalAlign=top;verticalLabelPosition=bottom;labelBackgroundColor=#ffffff;imageAspect=0;aspect=fixed;image=https://cdn0.iconfinder.com/data/icons/fruity-3/512/Apple-128.png" vertex="1" parent="1">
          <mxGeometry x="50" y="135" width="65" height="65" as="geometry" />
        </mxCell>
        <mxCell id="3s2Bezt8pYJbpKlEnDmr-82" value="100-" style="text;html=1;strokeColor=none;fillColor=none;align=center;verticalAlign=middle;whiteSpace=wrap;rounded=0;" vertex="1" parent="1">
          <mxGeometry x="-2" y="108" width="40" height="20" as="geometry" />
        </mxCell>
        <mxCell id="3s2Bezt8pYJbpKlEnDmr-83" value="0-" style="text;html=1;strokeColor=none;fillColor=none;align=center;verticalAlign=middle;whiteSpace=wrap;rounded=0;" vertex="1" parent="1">
          <mxGeometry x="5" y="208" width="40" height="20" as="geometry" />
        </mxCell>
        <mxCell id="3s2Bezt8pYJbpKlEnDmr-84" value="100" style="text;html=1;strokeColor=none;fillColor=none;align=center;verticalAlign=middle;whiteSpace=wrap;rounded=0;" vertex="1" parent="1">
          <mxGeometry x="109" y="215" width="40" height="20" as="geometry" />
        </mxCell>
        <mxCell id="3s2Bezt8pYJbpKlEnDmr-87" value="" style="whiteSpace=wrap;html=1;aspect=fixed;fillColor=none;strokeWidth=4;" vertex="1" parent="1">
          <mxGeometry x="90" y="165" width="10" height="10" as="geometry" />
        </mxCell>
        <mxCell id="3s2Bezt8pYJbpKlEnDmr-88" value="" style="endArrow=none;html=1;entryX=0;entryY=0;entryDx=0;entryDy=0;" edge="1" parent="1">
          <mxGeometry width="50" height="50" relative="1" as="geometry">
            <mxPoint x="101" y="165" as="sourcePoint" />
            <mxPoint x="240.46446609406735" y="209.46446609406723" as="targetPoint" />
          </mxGeometry>
        </mxCell>
        <mxCell id="3s2Bezt8pYJbpKlEnDmr-91" value="" style="endArrow=none;html=1;exitX=1;exitY=1;exitDx=0;exitDy=0;entryX=0;entryY=0;entryDx=0;entryDy=0;" edge="1" parent="1" source="3s2Bezt8pYJbpKlEnDmr-87">
          <mxGeometry width="50" height="50" relative="1" as="geometry">
            <mxPoint x="111.09999999999991" y="174.70000000000005" as="sourcePoint" />
            <mxPoint x="240.46446609406735" y="209.46446609406723" as="targetPoint" />
          </mxGeometry>
        </mxCell>
        <mxCell id="3s2Bezt8pYJbpKlEnDmr-92" value="Input" style="text;html=1;strokeColor=none;fillColor=none;align=center;verticalAlign=middle;whiteSpace=wrap;rounded=0;" vertex="1" parent="1">
          <mxGeometry x="45" y="60" width="40" height="20" as="geometry" />
        </mxCell>
        <mxCell id="3s2Bezt8pYJbpKlEnDmr-93" value="Convolution + ReLU" style="text;html=1;strokeColor=none;fillColor=none;align=center;verticalAlign=middle;whiteSpace=wrap;rounded=0;" vertex="1" parent="1">
          <mxGeometry x="171" y="60" width="126" height="20" as="geometry" />
        </mxCell>
        <mxCell id="3s2Bezt8pYJbpKlEnDmr-94" value="Pooling" style="text;html=1;strokeColor=none;fillColor=none;align=center;verticalAlign=middle;whiteSpace=wrap;rounded=0;" vertex="1" parent="1">
          <mxGeometry x="359" y="60" width="40" height="20" as="geometry" />
        </mxCell>
        <mxCell id="3s2Bezt8pYJbpKlEnDmr-96" value="Pooling" style="text;html=1;strokeColor=none;fillColor=none;align=center;verticalAlign=middle;whiteSpace=wrap;rounded=0;" vertex="1" parent="1">
          <mxGeometry x="604" y="60" width="40" height="20" as="geometry" />
        </mxCell>
        <mxCell id="3s2Bezt8pYJbpKlEnDmr-97" value="Flatten" style="text;html=1;strokeColor=none;fillColor=none;align=center;verticalAlign=middle;whiteSpace=wrap;rounded=0;" vertex="1" parent="1">
          <mxGeometry x="810" y="60" width="40" height="20" as="geometry" />
        </mxCell>
        <mxCell id="3s2Bezt8pYJbpKlEnDmr-98" value="" style="ellipse;whiteSpace=wrap;html=1;aspect=fixed;strokeWidth=1;fillColor=none;" vertex="1" parent="1">
          <mxGeometry x="920" y="118" width="22" height="22" as="geometry" />
        </mxCell>
        <mxCell id="3s2Bezt8pYJbpKlEnDmr-99" value="" style="ellipse;whiteSpace=wrap;html=1;aspect=fixed;strokeWidth=1;fillColor=none;" vertex="1" parent="1">
          <mxGeometry x="920" y="240" width="22" height="22" as="geometry" />
        </mxCell>
        <mxCell id="3s2Bezt8pYJbpKlEnDmr-100" value="" style="ellipse;whiteSpace=wrap;html=1;aspect=fixed;strokeWidth=1;fillColor=#000000;" vertex="1" parent="1">
          <mxGeometry x="928" y="163.5" width="6" height="6" as="geometry" />
        </mxCell>
        <mxCell id="3s2Bezt8pYJbpKlEnDmr-101" value="" style="ellipse;whiteSpace=wrap;html=1;aspect=fixed;strokeWidth=1;fillColor=#000000;" vertex="1" parent="1">
          <mxGeometry x="928" y="184" width="6" height="6" as="geometry" />
        </mxCell>
        <mxCell id="3s2Bezt8pYJbpKlEnDmr-102" value="" style="ellipse;whiteSpace=wrap;html=1;aspect=fixed;strokeWidth=1;fillColor=#000000;" vertex="1" parent="1">
          <mxGeometry x="928" y="208" width="6" height="6" as="geometry" />
        </mxCell>
        <mxCell id="3s2Bezt8pYJbpKlEnDmr-103" value="" style="ellipse;whiteSpace=wrap;html=1;aspect=fixed;strokeWidth=1;fillColor=none;" vertex="1" parent="1">
          <mxGeometry x="1010" y="118" width="22" height="22" as="geometry" />
        </mxCell>
        <mxCell id="3s2Bezt8pYJbpKlEnDmr-104" value="" style="ellipse;whiteSpace=wrap;html=1;aspect=fixed;strokeWidth=1;fillColor=none;" vertex="1" parent="1">
          <mxGeometry x="1010" y="240" width="22" height="22" as="geometry" />
        </mxCell>
        <mxCell id="3s2Bezt8pYJbpKlEnDmr-105" value="" style="ellipse;whiteSpace=wrap;html=1;aspect=fixed;strokeWidth=1;fillColor=#000000;" vertex="1" parent="1">
          <mxGeometry x="1018" y="163.5" width="6" height="6" as="geometry" />
        </mxCell>
        <mxCell id="3s2Bezt8pYJbpKlEnDmr-106" value="" style="ellipse;whiteSpace=wrap;html=1;aspect=fixed;strokeWidth=1;fillColor=#000000;" vertex="1" parent="1">
          <mxGeometry x="1018" y="184" width="6" height="6" as="geometry" />
        </mxCell>
        <mxCell id="3s2Bezt8pYJbpKlEnDmr-107" value="" style="ellipse;whiteSpace=wrap;html=1;aspect=fixed;strokeWidth=1;fillColor=#000000;" vertex="1" parent="1">
          <mxGeometry x="1018" y="208" width="6" height="6" as="geometry" />
        </mxCell>
        <mxCell id="3s2Bezt8pYJbpKlEnDmr-108" value="" style="endArrow=none;html=1;exitX=1;exitY=0;exitDx=0;exitDy=0;entryX=0;entryY=0;entryDx=0;entryDy=0;" edge="1" parent="1" source="3s2Bezt8pYJbpKlEnDmr-31" target="3s2Bezt8pYJbpKlEnDmr-64">
          <mxGeometry width="50" height="50" relative="1" as="geometry">
            <mxPoint x="750" y="180" as="sourcePoint" />
            <mxPoint x="820" y="120" as="targetPoint" />
          </mxGeometry>
        </mxCell>
        <mxCell id="3s2Bezt8pYJbpKlEnDmr-109" value="" style="endArrow=none;html=1;exitX=1;exitY=0.5;exitDx=0;exitDy=0;" edge="1" parent="1" source="3s2Bezt8pYJbpKlEnDmr-64">
          <mxGeometry width="50" height="50" relative="1" as="geometry">
            <mxPoint x="870" y="178" as="sourcePoint" />
            <mxPoint x="920" y="128" as="targetPoint" />
          </mxGeometry>
        </mxCell>
        <mxCell id="3s2Bezt8pYJbpKlEnDmr-110" value="" style="endArrow=none;html=1;entryX=0;entryY=0.5;entryDx=0;entryDy=0;exitX=1;exitY=0.5;exitDx=0;exitDy=0;" edge="1" parent="1" source="3s2Bezt8pYJbpKlEnDmr-64" target="3s2Bezt8pYJbpKlEnDmr-99">
          <mxGeometry width="50" height="50" relative="1" as="geometry">
            <mxPoint x="850" y="120" as="sourcePoint" />
            <mxPoint x="920" y="143" as="targetPoint" />
          </mxGeometry>
        </mxCell>
        <mxCell id="3s2Bezt8pYJbpKlEnDmr-113" value="" style="shape=parallelogram;perimeter=parallelogramPerimeter;whiteSpace=wrap;html=1;fixedSize=1;rotation=0;size=-10;flipH=1;" vertex="1" parent="1">
          <mxGeometry x="824" y="146" width="26" height="26" as="geometry" />
        </mxCell>
        <mxCell id="3s2Bezt8pYJbpKlEnDmr-114" value="" style="shape=parallelogram;perimeter=parallelogramPerimeter;whiteSpace=wrap;html=1;fixedSize=1;rotation=0;size=-10;flipH=1;" vertex="1" parent="1">
          <mxGeometry x="824" y="172" width="26" height="26" as="geometry" />
        </mxCell>
        <mxCell id="3s2Bezt8pYJbpKlEnDmr-115" value="" style="shape=parallelogram;perimeter=parallelogramPerimeter;whiteSpace=wrap;html=1;fixedSize=1;rotation=0;size=-10;flipH=1;" vertex="1" parent="1">
          <mxGeometry x="824" y="198" width="26" height="26" as="geometry" />
        </mxCell>
        <mxCell id="3s2Bezt8pYJbpKlEnDmr-116" value="" style="shape=parallelogram;perimeter=parallelogramPerimeter;whiteSpace=wrap;html=1;fixedSize=1;rotation=0;size=-10;flipH=1;" vertex="1" parent="1">
          <mxGeometry x="824" y="224" width="26" height="26" as="geometry" />
        </mxCell>
        <mxCell id="3s2Bezt8pYJbpKlEnDmr-117" value="" style="shape=parallelogram;perimeter=parallelogramPerimeter;whiteSpace=wrap;html=1;fixedSize=1;rotation=0;size=-10;flipH=1;" vertex="1" parent="1">
          <mxGeometry x="824" y="250" width="26" height="26" as="geometry" />
        </mxCell>
        <mxCell id="3s2Bezt8pYJbpKlEnDmr-118" value="" style="endArrow=none;html=1;exitX=1;exitY=0.5;exitDx=0;exitDy=0;entryX=0;entryY=0.5;entryDx=0;entryDy=0;" edge="1" parent="1" source="3s2Bezt8pYJbpKlEnDmr-113" target="3s2Bezt8pYJbpKlEnDmr-98">
          <mxGeometry width="50" height="50" relative="1" as="geometry">
            <mxPoint x="860" y="130" as="sourcePoint" />
            <mxPoint x="930" y="138" as="targetPoint" />
          </mxGeometry>
        </mxCell>
        <mxCell id="3s2Bezt8pYJbpKlEnDmr-119" value="" style="endArrow=none;html=1;exitX=1;exitY=0.5;exitDx=0;exitDy=0;entryX=0;entryY=0.5;entryDx=0;entryDy=0;" edge="1" parent="1" source="3s2Bezt8pYJbpKlEnDmr-113" target="3s2Bezt8pYJbpKlEnDmr-99">
          <mxGeometry width="50" height="50" relative="1" as="geometry">
            <mxPoint x="860" y="169" as="sourcePoint" />
            <mxPoint x="930.0000000000327" y="139.00000000000006" as="targetPoint" />
          </mxGeometry>
        </mxCell>
        <mxCell id="3s2Bezt8pYJbpKlEnDmr-120" value="" style="endArrow=none;html=1;exitX=1;exitY=0.5;exitDx=0;exitDy=0;" edge="1" parent="1" source="3s2Bezt8pYJbpKlEnDmr-114">
          <mxGeometry width="50" height="50" relative="1" as="geometry">
            <mxPoint x="860" y="169" as="sourcePoint" />
            <mxPoint x="920" y="250" as="targetPoint" />
          </mxGeometry>
        </mxCell>
        <mxCell id="3s2Bezt8pYJbpKlEnDmr-121" value="" style="endArrow=none;html=1;exitX=1;exitY=0.5;exitDx=0;exitDy=0;entryX=0;entryY=0.5;entryDx=0;entryDy=0;" edge="1" parent="1" source="3s2Bezt8pYJbpKlEnDmr-114" target="3s2Bezt8pYJbpKlEnDmr-98">
          <mxGeometry width="50" height="50" relative="1" as="geometry">
            <mxPoint x="860" y="195" as="sourcePoint" />
            <mxPoint x="930" y="260" as="targetPoint" />
          </mxGeometry>
        </mxCell>
        <mxCell id="3s2Bezt8pYJbpKlEnDmr-122" value="" style="endArrow=none;html=1;exitX=1;exitY=0.5;exitDx=0;exitDy=0;entryX=0;entryY=0.5;entryDx=0;entryDy=0;" edge="1" parent="1" source="3s2Bezt8pYJbpKlEnDmr-115" target="3s2Bezt8pYJbpKlEnDmr-98">
          <mxGeometry width="50" height="50" relative="1" as="geometry">
            <mxPoint x="861.0400000000004" y="198.276" as="sourcePoint" />
            <mxPoint x="930.0000000000327" y="139.00000000000006" as="targetPoint" />
          </mxGeometry>
        </mxCell>
        <mxCell id="3s2Bezt8pYJbpKlEnDmr-123" value="" style="endArrow=none;html=1;exitX=1;exitY=0.5;exitDx=0;exitDy=0;entryX=0;entryY=0.5;entryDx=0;entryDy=0;" edge="1" parent="1" source="3s2Bezt8pYJbpKlEnDmr-115" target="3s2Bezt8pYJbpKlEnDmr-99">
          <mxGeometry width="50" height="50" relative="1" as="geometry">
            <mxPoint x="860" y="221" as="sourcePoint" />
            <mxPoint x="930.0000000000327" y="139.00000000000006" as="targetPoint" />
          </mxGeometry>
        </mxCell>
        <mxCell id="3s2Bezt8pYJbpKlEnDmr-124" value="" style="endArrow=none;html=1;exitX=1;exitY=0.5;exitDx=0;exitDy=0;entryX=0;entryY=0.5;entryDx=0;entryDy=0;" edge="1" parent="1" source="3s2Bezt8pYJbpKlEnDmr-116" target="3s2Bezt8pYJbpKlEnDmr-99">
          <mxGeometry width="50" height="50" relative="1" as="geometry">
            <mxPoint x="860" y="221" as="sourcePoint" />
            <mxPoint x="930.0000000000327" y="261" as="targetPoint" />
          </mxGeometry>
        </mxCell>
        <mxCell id="3s2Bezt8pYJbpKlEnDmr-125" value="" style="endArrow=none;html=1;exitX=1;exitY=0.5;exitDx=0;exitDy=0;entryX=0;entryY=0.5;entryDx=0;entryDy=0;" edge="1" parent="1" source="3s2Bezt8pYJbpKlEnDmr-116" target="3s2Bezt8pYJbpKlEnDmr-98">
          <mxGeometry width="50" height="50" relative="1" as="geometry">
            <mxPoint x="860" y="247" as="sourcePoint" />
            <mxPoint x="940.0000000000327" y="271" as="targetPoint" />
          </mxGeometry>
        </mxCell>
        <mxCell id="3s2Bezt8pYJbpKlEnDmr-126" value="" style="endArrow=none;html=1;exitX=1;exitY=0.5;exitDx=0;exitDy=0;entryX=0;entryY=0.5;entryDx=0;entryDy=0;" edge="1" parent="1" source="3s2Bezt8pYJbpKlEnDmr-117" target="3s2Bezt8pYJbpKlEnDmr-99">
          <mxGeometry width="50" height="50" relative="1" as="geometry">
            <mxPoint x="860" y="247" as="sourcePoint" />
            <mxPoint x="930.0000000000327" y="261" as="targetPoint" />
          </mxGeometry>
        </mxCell>
        <mxCell id="3s2Bezt8pYJbpKlEnDmr-127" value="" style="endArrow=none;html=1;exitX=1;exitY=0.5;exitDx=0;exitDy=0;entryX=0;entryY=0.5;entryDx=0;entryDy=0;" edge="1" parent="1" source="3s2Bezt8pYJbpKlEnDmr-117" target="3s2Bezt8pYJbpKlEnDmr-98">
          <mxGeometry width="50" height="50" relative="1" as="geometry">
            <mxPoint x="860" y="273" as="sourcePoint" />
            <mxPoint x="930.0000000000327" y="261" as="targetPoint" />
          </mxGeometry>
        </mxCell>
        <mxCell id="3s2Bezt8pYJbpKlEnDmr-128" value="" style="endArrow=none;html=1;exitX=1;exitY=0.5;exitDx=0;exitDy=0;entryX=0;entryY=0.5;entryDx=0;entryDy=0;" edge="1" parent="1" source="3s2Bezt8pYJbpKlEnDmr-98" target="3s2Bezt8pYJbpKlEnDmr-103">
          <mxGeometry width="50" height="50" relative="1" as="geometry">
            <mxPoint x="860" y="273" as="sourcePoint" />
            <mxPoint x="930.0000000000327" y="261" as="targetPoint" />
          </mxGeometry>
        </mxCell>
        <mxCell id="3s2Bezt8pYJbpKlEnDmr-129" value="" style="endArrow=none;html=1;exitX=1;exitY=0.5;exitDx=0;exitDy=0;entryX=0;entryY=0.5;entryDx=0;entryDy=0;" edge="1" parent="1" source="3s2Bezt8pYJbpKlEnDmr-98" target="3s2Bezt8pYJbpKlEnDmr-104">
          <mxGeometry width="50" height="50" relative="1" as="geometry">
            <mxPoint x="951.9999999999677" y="139.00000000000006" as="sourcePoint" />
            <mxPoint x="1020.0000000000327" y="139.00000000000006" as="targetPoint" />
          </mxGeometry>
        </mxCell>
        <mxCell id="3s2Bezt8pYJbpKlEnDmr-130" value="" style="endArrow=none;html=1;exitX=1;exitY=0.5;exitDx=0;exitDy=0;entryX=0;entryY=0.5;entryDx=0;entryDy=0;" edge="1" parent="1" source="3s2Bezt8pYJbpKlEnDmr-99" target="3s2Bezt8pYJbpKlEnDmr-103">
          <mxGeometry width="50" height="50" relative="1" as="geometry">
            <mxPoint x="951.9999999999677" y="139.00000000000006" as="sourcePoint" />
            <mxPoint x="1020.0000000000327" y="261" as="targetPoint" />
          </mxGeometry>
        </mxCell>
        <mxCell id="3s2Bezt8pYJbpKlEnDmr-131" value="" style="endArrow=none;html=1;exitX=1;exitY=0.5;exitDx=0;exitDy=0;entryX=0;entryY=0.5;entryDx=0;entryDy=0;" edge="1" parent="1" source="3s2Bezt8pYJbpKlEnDmr-99" target="3s2Bezt8pYJbpKlEnDmr-104">
          <mxGeometry width="50" height="50" relative="1" as="geometry">
            <mxPoint x="951.9999999999677" y="261" as="sourcePoint" />
            <mxPoint x="1020.0000000000327" y="139.00000000000006" as="targetPoint" />
          </mxGeometry>
        </mxCell>
        <mxCell id="3s2Bezt8pYJbpKlEnDmr-132" value="Convolution + ReLU" style="text;html=1;strokeColor=none;fillColor=none;align=center;verticalAlign=middle;whiteSpace=wrap;rounded=0;" vertex="1" parent="1">
          <mxGeometry x="456" y="60" width="126" height="20" as="geometry" />
        </mxCell>
        <mxCell id="3s2Bezt8pYJbpKlEnDmr-133" value="Fully Connected Layers" style="text;html=1;strokeColor=none;fillColor=none;align=center;verticalAlign=middle;whiteSpace=wrap;rounded=0;" vertex="1" parent="1">
          <mxGeometry x="861" y="300" width="140" height="20" as="geometry" />
        </mxCell>
        <mxCell id="3s2Bezt8pYJbpKlEnDmr-134" value="Output Layer" style="text;html=1;strokeColor=none;fillColor=none;align=center;verticalAlign=middle;whiteSpace=wrap;rounded=0;" vertex="1" parent="1">
          <mxGeometry x="951" y="60" width="140" height="20" as="geometry" />
        </mxCell>
      </root>
    </mxGraphModel>
  </diagram>
</mxfile>
